<svg xmlns="http://www.w3.org/2000/svg" viewBox="0 0 419.9 380.31"><defs><style>.cls-1{fill:#df8426;}.cls-2{fill:#f3d2b1;}.cls-3{fill:#bfe0be;}.cls-4{fill:#b32e25;}.cls-5{fill:#c8a4b7;}.cls-6{fill:#b56d83;}.cls-7{fill:#80cef3;}.cls-8{fill:#a19fce;}.cls-9{fill:#5c2466;}.cls-10{fill:#514fa2;}.cls-11{fill:none;stroke:#231f20;stroke-linecap:round;stroke-linejoin:round;stroke-width:4px;}</style></defs><title>Asset 9</title><g id="Layer_2" data-name="Layer 2"><g id="Layer_1-2" data-name="Layer 1"><polygon class="cls-1" points="417.9 138.08 347.96 327.38 341.88 272.64 417.9 138.08"/><polygon class="cls-2" points="417.9 138.08 341.88 272.64 290.18 60.54 417.9 138.08"/><polygon class="cls-3" points="417.9 138.08 290.18 60.54 265.1 2 417.9 138.08"/><polygon class="cls-4" points="341.88 272.64 347.96 327.38 175.39 378.31 341.88 272.64"/><polygon class="cls-5" points="290.18 60.54 341.88 272.64 134.34 211.82 290.18 60.54"/><polygon class="cls-6" points="341.88 272.64 175.39 378.31 134.34 211.82 341.88 272.64"/><polygon class="cls-7" points="265.1 2 290.18 60.54 92.53 40.01 265.1 2"/><polygon class="cls-8" points="290.18 60.54 134.34 211.82 92.53 40.01 290.18 60.54"/><polygon class="cls-9" points="134.34 211.82 175.39 378.31 24 233.72 134.34 211.82"/><polygon class="cls-10" points="92.53 40.01 134.34 211.82 24 233.72 92.53 40.01"/><polygon class="cls-11" points="24 233.72 92.53 40.01 265.1 2 417.9 138.08 347.96 327.38 175.39 378.31 24 233.72"/><polyline class="cls-11" points="265.1 2 290.18 60.54 92.53 40.01 134.34 211.82 24 233.72"/><polyline class="cls-11" points="347.96 327.38 341.88 272.64 417.9 138.08 290.18 60.54 134.34 211.82"/><polyline class="cls-11" points="134.34 211.82 175.39 378.31 341.88 272.64 134.34 211.82"/><line class="cls-11" x1="290.18" y1="60.54" x2="341.88" y2="272.64"/><text x="-2"></text></g></g></svg>